PathFileType        4      (X/Y/Z)      C:\Users\pc\Desktop\IMUTRC\Sujet_07\Sujet_07_velo_60.trc         
DataRate	CameraRate	NumFrames	NumMarkers	Units	OrigDataRate	OrigDataStartFrame	OrigNumFrames
60.0	60.0	4	64	mm	60.0	1	935
Frame#	Time	pHipOrigin			pRightASI			pLeftASI			pRightCSI			pLeftCSI			pRightIschialTub			pLeftIschialTub			pSacrum			pL5SpinalProcess			pL3SpinalProcess			pT12SpinalProcess			pIJ			pT4SpinalProcess			pT8SpinalProcess			pPX			pC7SpinalProcess			pTopOfHead			pRightAuricularis			pLeftAuricularis			pBackOfHead			pRightAcromion			pLeftAcromion			pRightArmLatEpicondyle			pRightArmMedEpicondyle			pLeftArmLatEpicondyle			pLeftArmMedEpicondyle			pRightUlnarStyloid			pRightRadialStyloid			pRightOlecranon			pLeftUlnarStyloid			pLeftRadialStyloid			pLeftOlecranon			pRightTopOfHand			pRightPinky			pRightBallHand			pLeftTopOfHand			pLeftPinky			pLeftBallHand			pRightGreaterTrochanter			pRightKneeLatEpicondyle			pRightKneeMedEpicondyle			pRightPatella			pLeftGreaterTrochanter			pLeftKneeLatEpicondyle			pLeftKneeMedEpicondyle			pLeftPatella			pRightTibialTub			pRightLatMalleolus			pRightMedMalleolus			pLeftTibialTub			pLeftLatMalleolus			pLeftMedMalleolus			pRightHeelFoot			pRightFirstMetatarsal			pRightFifthMetatarsal			pRightPivotFoot			pRightHeelCenter			pRightToe			pLeftHeelFoot			pLeftFirstMetatarsal			pLeftFifthMetatarsal			pLeftPivotFoot			pLeftHeelCenter			pLeftToe			
		X1	Y1	Z1	X2	Y2	Z2	X3	Y3	Z3	X4	Y4	Z4	X5	Y5	Z5	X6	Y6	Z6	X7	Y7	Z7	X8	Y8	Z8	X9	Y9	Z9	X10	Y10	Z10	X11	Y11	Z11	X12	Y12	Z12	X13	Y13	Z13	X14	Y14	Z14	X15	Y15	Z15	X16	Y16	Z16	X17	Y17	Z17	X18	Y18	Z18	X19	Y19	Z19	X20	Y20	Z20	X21	Y21	Z21	X22	Y22	Z22	X23	Y23	Z23	X24	Y24	Z24	X25	Y25	Z25	X26	Y26	Z26	X27	Y27	Z27	X28	Y28	Z28	X29	Y29	Z29	X30	Y30	Z30	X31	Y31	Z31	X32	Y32	Z32	X33	Y33	Z33	X34	Y34	Z34	X35	Y35	Z35	X36	Y36	Z36	X37	Y37	Z37	X38	Y38	Z38	X39	Y39	Z39	X40	Y40	Z40	X41	Y41	Z41	X42	Y42	Z42	X43	Y43	Z43	X44	Y44	Z44	X45	Y45	Z45	X46	Y46	Z46	X47	Y47	Z47	X48	Y48	Z48	X49	Y49	Z49	X50	Y50	Z50	X51	Y51	Z51	X52	Y52	Z52	X53	Y53	Z53	X54	Y54	Z54	X55	Y55	Z55	X56	Y56	Z56	X57	Y57	Z57	X58	Y58	Z58	X59	Y59	Z59	X60	Y60	Z60	X61	Y61	Z61	X62	Y62	Z62	X63	Y63	Z63	X64	Y64	Z64	
1	0.0	0.0	1249.97763	7.653905517926474E-14	118.13346481370809	1323.78966	128.65479686850742	91.22666024708657	1312.27973	-154.14781055277788	100.09022597596302	1405.6215	101.68868326858193	77.88747263331757	1396.11653	-130.89515987403652	-71.20971330717181	1220.57164	66.75458144043529	-82.26036512512499	1215.81915	-49.550928154116455	-55.69301612724753	1297.94802	3.3441535591456897	22.291789661072	1379.63135	-6.679752284615229	108.94925490685404	1465.54735	-22.071664945443946	190.2285767416586	1542.03265	-37.65331996806788	455.7177005967212	1519.60686	-83.73081134198289	362.5378501158168	1646.29027	-72.19033606738513	279.2914135644989	1606.71099	-55.42927841144359	344.3339425357506	1460.72061	-61.00682324242231	417.1887944091452	1670.5725	-81.45234826504627	692.1050079084284	1658.98832	-101.67973787025768	593.4600260132953	1637.67639	-27.35645731617514	587.7072763317893	1655.8695	-170.9570425845811	584.0205735392246	1702.80028	-91.79906603545312	444.0673315549475	1597.87434	104.27031976529685	373.9707781062184	1580.94361	-261.00296822603707	472.3758007240362	1313.31934	66.08023287993808	436.67515334669406	1314.80449	12.370788000595093	402.85724881158546	1298.98763	-265.59018313908285	373.2959756357303	1291.11633	-208.74497606207882	556.8693786705414	1072.20502	17.456022963309643	604.9288190369805	1096.41298	11.5910104653105	430.2401098851624	1305.89358	44.75427022488187	465.8290825091249	1044.80398	-263.2742385489991	513.8396823716164	1064.48223	-278.8566568126938	363.8628380991413	1289.70543	-231.16876257392138	750.4231527558393	1044.28417	110.0831522508654	671.5114644695207	1018.88808	63.49452567380718	615.6007229252798	1055.71984	20.58203071728432	598.6377336700751	982.20485	-420.6816700444564	545.4391394863251	972.77413	-342.4994220269629	516.2591052639848	1021.11581	-286.4630601872713	52.22893812218453	1246.56179	168.54722554700552	453.6412362665736	1074.28423	88.87597037793715	442.17482835158125	1069.606	3.8846714670139106	462.45679740978727	1117.27936	39.00293058066127	-13.900757196356537	1223.54194	-177.45822227223172	155.55213096930504	816.46195	-230.36471406444463	177.1424054591658	807.47679	-147.75994643024165	208.88004699982403	833.83823	-194.85983409107035	482.3304044255774	1024.60592	43.78883349965546	261.3233079310054	687.4023	138.61351346153165	252.796788894538	681.16467	73.92627764439648	215.40599963314168	769.01137	-202.1532156197644	62.81339946365417	384.87697	-228.94473926716879	78.90794796735841	379.67894	-165.63303500046615	190.1387827118491	622.35267	119.03716785377851	342.50747854941824	559.01097	80.27578518010012	347.0391728476338	570.37238	158.86246041122072	365.83381496722956	556.63473	118.43788535000682	229.7112036208257	612.55067	118.2186242609301	451.6675030570158	522.40199	118.43323657747737	-0.08870751354596962	326.65904	-178.65857407952527	153.07987059667423	254.18365	-173.6567934895089	134.4961145226781	252.03018000000003	-250.92444377388094	163.72112695546156	243.04502	-215.70189015929398	37.28940631442479	312.84713	-187.2606463206635	243.54656853829232	200.19840000000002	-233.66635071737832	
2	0.017	0.0	1249.97763	7.653905517926474E-14	118.18054376722304	1324.16094	128.42473372905232	90.0021205305732	1313.76488	-154.25458554789074	99.34302231082184	1405.91853	101.94325798020814	76.17298709785719	1397.37891	-130.59884381777718	-70.62098225579963	1219.68055	66.9229893474652	-82.20600669240896	1215.37361	-49.34805972140043	-56.05435717373256	1297.50248	3.8214946105178753	21.368898609699816	1379.92838	-6.269378093787949	107.66769228331073	1466.28993	-21.782633368385664	188.79121463891423	1542.92374	-37.53997577724059	454.05295348908976	1520.27518	-84.26322476981174	361.09320487361737	1647.10711	-72.50993710898304	277.8640140755235	1607.67634	-55.4816899738404	342.6492938608351	1461.6117	-61.2077461445651	415.71697178071463	1671.38933	-81.87337669287508	690.6259058007969	1659.65663	-102.53369787025771	592.0081099521487	1638.34471	-28.108984929944185	586.1539105639038	1656.61207	-171.68239415186503	582.5315188178242	1703.4686	-92.48728760273711	442.8627020659721	1598.9882	103.8320592444979	372.05606629184774	1582.13173	-261.2509700816948	471.0226425748068	1314.13617	65.89921154507923	435.2205591509797	1315.62132	12.216939051967268	401.37547722964	1299.95298	-265.8454594739417	371.97995248650096	1292.15593	-208.9903171036767	555.377659474827	1073.02185	17.366476400912838	603.409922455035	1097.22982	11.4000365166827	428.785524349702	1306.71042	44.600426276254034	464.41161831341043	1045.84358	-263.49239854411195	512.422218175902	1065.44758	-279.07481680780666	362.3810715171959	1290.67078	-231.4240475690343	749.0056885601249	1045.10101	109.8649922557526	670.0568702738062	1019.70492	63.34067672517933	614.0818263433343	1056.46241	20.39105676865652	597.3488915673308	983.09594	-420.82557003956936	544.0488563370957	973.73948	-342.6161409755908	514.9059471147555	1022.15542	-286.6440815221301	52.53324760138558	1245.07663	168.46568606780446	451.65760340083096	1068.04659	87.5592232849671	440.0254607133765	1064.03669	2.557985420528874	460.9876442556707	1111.19024	37.98321848769119	-14.29655876852766	1224.28452	-177.51525383951574	159.92194412830875	819.65503	-233.32949247542211	181.85366675762458	810.44709	-150.8705703669052	213.12125172611172	837.47685	-197.89887616230186	481.949880755549	1019.63066	42.36869982962711	271.20717607315765	675.74386	136.34565166401248	262.9478451761454	669.35771	71.64119241416128	218.02419725668497	770.34801	-204.75736692799748	49.73787688847514	392.5255	-225.60424983144483	65.96105614540348	387.47599	-162.2182805647422	202.79860214757304	608.16948	115.97113737645667	357.6906237579149	551.36244	77.29468626028799	361.4207659582732	562.12979	155.93305044981068	380.91552412924113	549.506	115.48395881642567	242.7025135822357	599.92689	115.17249535089223	467.9737432752868	518.91188	115.58608003900909	-14.270096665783285	336.60955	-175.1848475459441	137.1395814297755	260.5698	-170.2553627651005	118.45438930929433	258.78762	-247.4958406632415	147.5136496491077	249.13414	-212.28323600216947	22.77652163650137	321.90656	-183.80681269411227	226.24317360839518	204.43108	-230.28021155536672	
3	0.033	0.0	1249.97763	7.653905517926474E-14	118.19049638099206	1324.45797	128.25899529633628	88.77758947431386	1315.17578	-154.36135554300358	98.59583230593466	1406.21556	102.19782903158033	74.42136290214276	1398.56703	-130.2382217150328	-70.06938620442745	1218.78946	67.15571696123422	-82.18877459943891	1215.00232	-49.08086658194534	-56.4156982202176	1297.05693	4.298835661890053	20.3445715118426	1380.22541	-5.831831516729673	106.41331070625245	1466.95825	-21.392160744842354	187.38103858265487	1543.81483	-37.32519920018232	452.3882063814582	1521.01776	-84.7956381976406	359.6114382916719	1647.9982	-72.76522210409588	276.3722898798091	1608.56743	-55.57122787598321	341.00177518591966	1462.42853	-61.47298009319291	414.2822791522842	1672.13191	-82.35871616718903	689.1096650329114	1660.32495	-103.32335182377268	590.5561802307483	1638.93877	-28.861508883459138	584.6005484562722	1657.28039	-172.407732058895	581.0424590964236	1704.21117	-93.17550050976702	441.62093391674273	1600.10207	103.45810477018401	370.07706575150024	1583.2456	-261.53610059760655	469.7066194255774	1314.95301	65.65387050348139	433.7288436155193	1316.43816	12.127406149824475	399.86652960120955	1300.99258	-266.20218551553955	370.6639243372715	1293.12128	-209.2356494850205	553.8859352791126	1073.83868	17.27693849877006	601.9553282593206	1097.97239	11.246187568054903	427.3952412004726	1307.52725	44.48370732762623	463.05846516418103	1046.88319	-263.6734285392248	511.0690736869266	1066.48718	-279.2558418029195	361.0007323214814	1291.71039	-231.7065099503781	747.5239219781795	1045.91784	109.60970726063972	668.5379736918608	1020.44749	63.14970277655153	612.6272321476199	1057.27925	20.237207820028665	595.9586084181014	983.98703	-420.94228898819716	542.6585731878662	974.70483	-342.73285992421853	513.451352919041	1023.12077	-286.7979304707579	52.837557080586635	1243.66574	168.3841465886034	449.54536076262616	1061.80896	86.16823485225105	437.84889836843263	1058.54163	1.1298619878128386	459.4541750550691	1105.17538	36.9263850549752	-14.692356680444746	1225.10135	-177.57227174654568	164.22745990108146	822.92236	-236.33140454665363	186.52780305608337	813.49165	-153.9168919173378	217.32531279214538	841.18972	-200.8736035267943	481.53223574577476	1014.80392	41.01288220608382	281.2839723547651	664.38246	134.18918852674736	273.2275098904688	657.92205	69.43037084418009	220.50382883374326	771.83316	-207.27003480351456	36.8924124527512	400.91661	-222.21667278195187	53.21702409591053	396.08987	-158.8578895617343	215.52272762978203	593.98628	112.9422455593889	372.7723329199265	543.86242	74.34075972670684	375.7652340689126	554.03571	153.06794287463165	395.89580090502176	542.60005	112.55721832932954	255.7210095901308	587.45162	112.22779882708538	484.11424506084165	515.49603	112.72897088677175	-28.451477157766575	346.63433	-171.71111601236296	121.19928860262267	267.03021	-166.85394570094607	102.41266409591053	265.61932	-244.06723755260205	131.20474495652283	255.37177	-208.83740445881404	8.263650618832017	331.04024	-180.3529827278151	208.93978733875204	208.73802	-226.89406739335507	
4	0.05	0.0	1249.97763	7.653905517926474E-14	118.23757533450704	1324.68075	128.0289321568812	87.61735580428552	1316.43816	-154.4309918778624	98.01438573376356	1406.43833	102.4623440364675	72.77117475291335	1399.60663	-129.90477199851944	-69.54496619954028	1218.04688	67.28699486826416	-82.13441616672287	1214.63103	-48.877998149229306	-56.7127282202176	1296.61139	4.81330671326224	19.523126506955446	1380.44818	-5.448647032641463	105.2975001756792	1467.55231	-21.093180214269115	186.13660595911156	1544.63166	-37.10047866960908	451.04500218574367	1521.61182	-85.14242028572356	358.35972118892755	1648.66651	-72.97342448543971	275.1378012097807	1609.38426	-55.512250778126	339.5743620366903	1463.17111	-61.52538799533567	413.00338100305487	1672.80022	-82.66835959501786	687.813543450966	1660.84476	-103.90018339105667	589.2872310350339	1639.53283	-29.336904404258078	583.2672968743268	1657.87445	-172.92025257969394	579.8106435609633	1704.73098	-93.71519341679699	440.5077792002293	1601.06741	103.1584052958701	368.4195894628158	1584.21095	-261.63558745326435	468.48208836931803	1315.69558	65.54710050836852	432.5043038990059	1317.18073	12.020631154711618	398.5133764519802	1301.88367	-266.3832155106524	369.43939328101226	1293.93811	-209.34241948013337	552.6242742228533	1074.507	17.234479550142236	600.7307972030615	1098.71497	11.139417572942062	426.17070148395925	1308.26982	44.3769323325134	461.9353701544067	1047.70002	-263.80737092056864	509.90884001689824	1067.37828	-279.32547813777825	359.74902021873703	1292.52722	-231.914720991976	746.363688308151	1046.66041	109.54007092578091	667.3777450218324	1021.19007	63.08005778143875	611.4298734775916	1058.02182	20.231873871400843	594.862685794558	984.80386	-420.97479532305596	541.562655564323	975.52166	-342.7653749193315	512.3925652954978	1024.01186	-286.89475651235574	52.938998127071685	1242.10633	168.35696554211836	446.81186841768226	1054.30894	85.70474247579436	435.2168470699739	1051.78419	0.6391885648711271	457.5023469009526	1097.82388	36.742690585548395	-14.94960086638487	1225.99244	-177.72079174654567	169.97032777659854	826.93227	-239.4466434882043	192.57498541080153	817.35305	-157.11367899834363	222.8653122349464	845.79369	-203.934484035629	480.4389825965454	1008.64054	40.38169220608382	290.5691691522843	652.12996	131.91867591516828	282.7798911671891	645.66955	67.14262113963099	224.22789303434482	774.28366	-210.00742320960484	25.59569511977162	410.94138	-219.13536440248726	42.12318885590103	406.26315	-155.83094327523975	227.3909389211637	579.20903	109.76216060775315	386.59237236542475	535.47132	71.34436924449784	388.9123471697778	544.97629	150.19751501107882	409.64158035052	534.65449	109.68944994009063	267.8464514071986	574.15951	109.19623753570369	498.9559557901372	510.89206	109.89371383239165	-40.854056067804414	358.29276	-168.49657919529517	106.66918049198324	275.05003	-163.66730021384996	87.78111493878603	274.01042	-240.85341101902088	116.34314132019729	263.09456	-205.67065187874783	-4.63617590986199	341.80758	-177.1682877712922	192.88082503239818	214.45586	-223.73264876191672	
